# xmcd
#
# Track frame offsets:
#	150
#	10652
#	24275
#	43316
#	61708
#	80466
#	101278
#	111886
#	127819
#	138831
#	153743
#	165049
#
# Disc length: 2422 seconds
# Revision: 0
# Processed by: cddbd v1.5.1PL0 Copyright (c) Steve Scherf et al.
# Submitted via: cdrLabel 7.1
#
DISCID=8009740c
DTITLE=Linda Ronstadt - Lush Life
DYEAR=1972
DGENRE=Soul
TTITLE0=When I Fall In Love
TTITLE1=Skylark
TTITLE2=It Never Entered My Mind
TTITLE3=Mean To Me
TTITLE4=When Your Lover Has Gone
TTITLE5=I'am A Fool To Want You
TTITLE6=You Took Advantage Of Me
TTITLE7=Sophistacated Lady
TTITLE8=Can't We Be Friends
TTITLE9=My Old Flame
TTITLE10=Falling In Love Again
TTITLE11=Lush Life
EXTD=
EXTT0=
EXTT1=
EXTT2=
EXTT3=
EXTT4=
EXTT5=
EXTT6=
EXTT7=
EXTT8=
EXTT9=
EXTT10=
EXTT11=
PLAYORDER=
